<?xml version="1.0" encoding="iso-8859-1"?>
<!-- Generator: Adobe Illustrator 17.1.0, SVG Export Plug-In . SVG Version: 6.00 Build 0)  -->
<!DOCTYPE svg PUBLIC "-//W3C//DTD SVG 1.1//EN" "http://www.w3.org/Graphics/SVG/1.1/DTD/svg11.dtd">
<svg version="1.1" id="Capa_1" xmlns="http://www.w3.org/2000/svg" xmlns:xlink="http://www.w3.org/1999/xlink" x="0px" y="0px"
	 viewBox="0 0 402.833 402.833" style="enable-background:new 0 0 402.833 402.833;" xml:space="preserve">
<g>
	<path style="fill:#231F20;" d="M187.981,155.44c1.211,4.31,1.873,8.847,1.873,13.539V182v35h40.227v-35V35V0h-77.1v120.645
		C169.887,125.287,183.242,138.574,187.981,155.44z M200.123,23.116c5.48,0,9.924,4.443,9.924,9.924
		c0,0.671-0.068,1.327-0.195,1.961c-0.91,4.541-4.92,7.963-9.729,7.963c-4.809,0-8.817-3.422-9.729-7.963
		c-0.127-0.634-0.195-1.289-0.195-1.961C190.2,27.559,194.643,23.116,200.123,23.116z"/>
	<rect x="265.081" y="0" style="fill:#231F20;" width="31.051" height="217"/>
	<path style="fill:#231F20;" d="M266.354,243.5h-69.713c5.094,7.202,10.885,16.331,16.008,26.705
		c7.708,15.607,13.898,34.032,13.898,52.961h-25c0-22.314-12.028-45.86-23.151-62.291c-5.13-7.578-10.067-13.646-13.542-17.375
		v-74.521c0-13.876-11.25-25.125-25.125-25.125c-13.877,0-25.125,11.249-25.125,25.125V243.5c0,0-5.166,15.317-7.144,40.479
		c-0.468,5.954-0.759,12.454-0.759,19.437c0,36.5,18.666,59.334,18.666,99.417c10.764,0,117.465,0,117.465,0s0-12.666,0-26.666
		s9.521-32,16.188-46c8.668-19.833,7.334-45.334,7.334-45.334V243.5z"/>
</g>
<g>
</g>
<g>
</g>
<g>
</g>
<g>
</g>
<g>
</g>
<g>
</g>
<g>
</g>
<g>
</g>
<g>
</g>
<g>
</g>
<g>
</g>
<g>
</g>
<g>
</g>
<g>
</g>
<g>
</g>
</svg>
