<?xml version="1.0" encoding="iso-8859-1"?>
<!-- Generator: Adobe Illustrator 19.0.0, SVG Export Plug-In . SVG Version: 6.00 Build 0)  -->
<svg version="1.1" id="Layer_1" xmlns="http://www.w3.org/2000/svg" xmlns:xlink="http://www.w3.org/1999/xlink" x="0px" y="0px"
	 viewBox="0 0 512.005 512.005" style="enable-background:new 0 0 512.005 512.005;" xml:space="preserve">
<g>
	<g>
		<path d="M502.116,172.008c-5.507-5.931-14.778-6.274-20.708-0.768l-29.637,27.519c-4.861-2.623-9.684-3.618-14.448-0.473
			l0.587-1.378c0.936-2.199-0.087-4.742-2.286-5.678c-1.884-0.803-4.011-0.159-5.174,1.423c0.151-1.346,0.235-2.711,0.235-4.098
			c0-20.138-16.325-36.464-36.464-36.464s-36.464,16.325-36.464,36.464c0,1.386,0.085,2.752,0.235,4.098
			c-1.163-1.582-3.29-2.226-5.174-1.423c-2.199,0.936-3.223,3.479-2.286,5.678l0.587,1.378c-4.287-2.83-8.988-2.285-13.065-0.249
			c-3.095,1.546-7.28,4.021-11.741,8.576l-50.401-33.479c-6.74-4.478-15.834-2.643-20.313,4.098
			c-4.478,6.741-2.643,15.835,4.098,20.313c76.806,51.024,98.667,65.565,99.395,65.986c0,0-5.52,34.261-23.007,127.052
			c-0.976,5.039,2.909,9.697,7.991,9.697c2.145,0,4.584,0,7.255,0l-17.804,90.749c-1.87,9.53,4.34,18.77,13.869,20.64
			c9.525,1.87,18.769-4.338,20.64-13.869l19.132-97.52c5.844,0,11.775,0,17.574,0l14.422,96.728
			c1.432,9.602,10.375,16.229,19.985,14.798c3.772-0.563,7.072-2.295,9.618-4.76c2.943,3.051,7.063,4.956,11.636,4.956
			c8.934,0,16.177-7.243,16.177-16.177c0-8.934-7.242-16.177-16.177-16.177c-2.895,0-5.606,0.77-7.958,2.102l-12.148-81.47
			c1.443,0,2.811,0,4.067,0c5.109,0,8.966-4.663,7.991-9.697c-13.867-71.344-23.441-130.606-23.441-130.606l37.309-34.644
			c1.517,0.317,3.04,0.698,4.563,1.198c0.871,0.286,1.828,0.023,2.431-0.668c0.602-0.69,0.733-1.674,0.333-2.498
			c-0.556-1.143-1.12-2.224-1.686-3.268l29.485-27.379C507.279,187.21,507.622,177.939,502.116,172.008z M411.448,236.203
			c-15.442,0-23.61,0-40.593,0l-19.365-12.864c3.102-1.32,5.806-4.252,6.886-8.006l0.631,1.481
			c2.242,5.266,10.222,1.911,7.965-3.392l-0.539-1.266c6.688,7.867,16.651,12.865,27.787,12.865c11.137,0,21.1-4.998,27.788-12.866
			l-0.539,1.267c-2.258,5.303,5.733,8.633,7.965,3.392l0.631-1.48c0.259,0.901,0.61,1.774,1.061,2.599L411.448,236.203z"/>
	</g>
</g>
<g>
	<g>
		<circle cx="122.289" cy="179.993" r="36.552"/>
	</g>
</g>
<g>
	<g>
		<path d="M241.226,143.262c4.87-6.548,3.51-15.802-3.038-20.672c-6.546-4.87-15.8-3.511-20.671,3.038l-76.289,102.573
			c-4.088,0-35.106,0-39.43,0l-69.636-84.749c-5.18-6.303-14.489-7.216-20.793-2.035c-6.303,5.18-7.216,14.49-2.035,20.793
			l73.666,89.653v98.096L40.756,489.118c-2.845,9.369,2.445,19.269,11.814,22.113c9.388,2.848,19.274-2.462,22.113-11.814
			l39.355-129.641h13.73l12.778,126.279c0.985,9.74,9.681,16.839,19.422,15.853c9.741-0.986,16.839-9.682,15.853-19.422
			c-15.39-152.084-14.321-141.896-14.57-143.218V250.79L241.226,143.262z"/>
	</g>
</g>
<g>
	<g>
		<circle cx="279.01" cy="112.867" r="16.177"/>
	</g>
</g>
<g>
	<g>
		<circle cx="224.016" cy="495.828" r="16.177"/>
	</g>
</g>
<g>
	<g>
		<circle cx="294.374" cy="495.828" r="16.177"/>
	</g>
</g>
<g>
	<g>
		<circle cx="362.99" cy="76.105" r="16.177"/>
	</g>
</g>
<g>
	<g>
		<circle cx="207.835" cy="43.751" r="16.177"/>
	</g>
</g>
<g>
	<g>
		<circle cx="143.841" cy="92.285" r="16.177"/>
	</g>
</g>
<g>
	<g>
		<circle cx="43.843" cy="76.105" r="16.177"/>
	</g>
</g>
<g>
	<g>
		<circle cx="95.31" cy="27.574" r="16.177"/>
	</g>
</g>
<g>
	<g>
		<circle cx="430.69" cy="27.574" r="16.177"/>
	</g>
</g>
<g>
	<g>
		<circle cx="468.687" cy="124.635" r="16.177"/>
	</g>
</g>
<g>
	<g>
		<circle cx="295.179" cy="16.177" r="16.177"/>
	</g>
</g>
<g>
</g>
<g>
</g>
<g>
</g>
<g>
</g>
<g>
</g>
<g>
</g>
<g>
</g>
<g>
</g>
<g>
</g>
<g>
</g>
<g>
</g>
<g>
</g>
<g>
</g>
<g>
</g>
<g>
</g>
</svg>
