<?xml version="1.0" encoding="iso-8859-1"?>
<!-- Generator: Adobe Illustrator 19.0.0, SVG Export Plug-In . SVG Version: 6.00 Build 0)  -->
<svg version="1.1" id="Capa_1" xmlns="http://www.w3.org/2000/svg" xmlns:xlink="http://www.w3.org/1999/xlink" x="0px" y="0px"
	 viewBox="0 0 233 233" style="enable-background:new 0 0 233 233;" xml:space="preserve">
<g>
	<path d="M168.994,100.172c2.09-6.788,3.323-12.773,3.323-17.453c0-31.834-25.899-57.733-57.733-57.733
		c-31.835,0-57.734,25.899-57.734,57.733c0,4.68,1.233,10.665,3.323,17.453H0v18h66.827c1.639,3.918,3.42,7.938,5.298,12H0v57
		h102.159c5.474,9.478,9.368,15.857,9.945,16.798l2.479,4.045l2.479-4.045c0.597-0.974,4.745-7.767,10.522-17.798H233v-86H168.994z
		 M114.025,114.698c-18.252,0-33.049-14.796-33.049-33.049c0-18.252,14.796-33.049,33.049-33.049s33.049,14.796,33.049,33.049
		C147.074,99.901,132.277,114.698,114.025,114.698z M218,171.172h-81.953c9.353-16.938,20.158-37.791,27.527-56H218V171.172z"/>
	<path d="M165.337,141.149c1.844,1.727,4.598,3.024,8.184,3.858c2.924,0.686,4.987,1.488,6.128,2.383
		c0.982,0.775,1.439,1.769,1.439,3.126c0,1.722-0.503,3.002-1.539,3.916c-1.085,0.964-2.687,1.461-4.752,1.478
		c-2.09,0-3.004-0.478-4.063-1.43c-1.05-0.909-1.573-2.224-1.603-4.037l-0.054-1.479l-7.52,0.024L161,151.339v0.054
		c0,2.824,1.762,5.342,4.263,7.496c1.849,1.53,3.592,2.554,5.729,3.063l0.128,5.214l7.468-0.021l-0.016-5.211
		c2.306-0.52,4.298-1.503,5.897-2.923c2.617-2.236,3.94-5.139,3.92-8.621c0-2.94-1.097-5.427-3.269-7.392
		c-2.055-1.842-5.13-3.254-9.148-4.197c-3.059-0.702-4.472-1.5-5.129-2.054c-0.796-0.654-1.182-1.532-1.182-2.691
		c-0.012-1.407,0.383-2.144,1.285-2.899c0.927-0.791,2.365-0.985,4.17-0.985h0.101c1.556,0,2.181,0.104,3.073,0.886
		c0.844,0.741,1.387,1.866,1.619,3.592l0.206,1.228l7.176-0.073l-0.055-1.596c-0.18-3.373-1.468-6.091-3.837-8.072
		c-1.563-1.272-2.938-2.129-5.017-2.551l-0.021-4.408l-7.418,0.051l0.035,4.564c-1.868,0.472-3.532,1.307-4.953,2.488
		c-2.467,2.038-3.707,4.684-3.687,7.865C162.356,136.92,163.362,139.275,165.337,141.149z"/>
</g>
<g>
</g>
<g>
</g>
<g>
</g>
<g>
</g>
<g>
</g>
<g>
</g>
<g>
</g>
<g>
</g>
<g>
</g>
<g>
</g>
<g>
</g>
<g>
</g>
<g>
</g>
<g>
</g>
<g>
</g>
</svg>
