<?xml version="1.0" encoding="iso-8859-1"?>
<!-- Generator: Adobe Illustrator 17.1.0, SVG Export Plug-In . SVG Version: 6.00 Build 0)  -->
<!DOCTYPE svg PUBLIC "-//W3C//DTD SVG 1.1//EN" "http://www.w3.org/Graphics/SVG/1.1/DTD/svg11.dtd">
<svg version="1.1" id="Capa_1" xmlns="http://www.w3.org/2000/svg" xmlns:xlink="http://www.w3.org/1999/xlink" x="0px" y="0px"
	 viewBox="0 0 373.102 373.102" style="enable-background:new 0 0 373.102 373.102;" xml:space="preserve">
<path d="M116.277,89.731c-1.395-5.67-2.102-11.509-2.102-17.356C114.175,32.467,146.643,0,186.552,0
	c39.908,0,72.375,32.467,72.375,72.375c0,5.841-0.708,11.681-2.104,17.356c-1.009,4.104-4.687,6.853-8.732,6.853
	c-0.712,0-1.434-0.085-2.156-0.262c-4.826-1.187-7.777-6.062-6.59-10.889c1.05-4.27,1.582-8.663,1.582-13.057
	c0-29.982-24.393-54.375-54.375-54.375c-29.983,0-54.377,24.393-54.377,54.375c0,4.4,0.532,8.793,1.58,13.057
	c1.188,4.827-1.764,9.702-6.59,10.889C122.335,97.508,117.462,94.557,116.277,89.731z M236.238,364.1c0,4.971-4.029,9-9,9h-21.19
	c-0.071,0.001-0.143,0.002-0.214,0.002c-4.971,0-9-4.029-9-9V321.17h-20.57v42.932c0,5.042-4.148,9.105-9.214,8.998h-21.188
	c-4.971,0-9-4.029-9-9s4.029-9,9-9h12.402v-33.93h-12.402c-4.971,0-9-4.029-9-9c0-0.475,0.037-0.941,0.107-1.396l7.328-55.898
	c0.043-0.328,0.104-0.649,0.18-0.963c0.006-0.128,0.015-0.256,0.026-0.386l6.274-70.032c0.443-4.951,4.831-8.608,9.767-8.161
	c4.951,0.443,8.604,4.816,8.161,9.767l-5.396,60.229h46.482l-5.397-60.229c-0.444-4.951,3.21-9.324,8.16-9.767
	c4.951-0.448,9.323,3.209,9.768,8.161l6.276,70.032c0.012,0.132,0.021,0.264,0.027,0.396c0.075,0.311,0.134,0.629,0.177,0.953
	l7.341,56.005c0.028,0.195,0.05,0.392,0.065,0.591c0.071,0.916,0.002,1.814-0.19,2.671c-0.899,4.021-4.49,7.027-8.783,7.027h-12.401
	v33.93h12.404C232.208,355.1,236.238,359.129,236.238,364.1z M216.978,303.17l-5.222-39.84h-50.414l-5.223,39.84h10.934
	c0.141-0.003,0.279-0.003,0.42,0h10.075v-7.627c0-4.971,4.029-9,9-9s9,4.029,9,9v7.627h10.075c0.141-0.003,0.279-0.003,0.42,0
	H216.978z M287.455,250.948l-31.764-78.285c-8.325-20.512-23.294-47.783-57.013-47.783h-24.258
	c-33.719,0-48.687,27.271-57.012,47.784l-31.763,78.284c-1.868,4.606,0.351,9.855,4.956,11.724c4.604,1.867,9.854-0.35,11.724-4.956
	l31.763-78.283c10.397-25.621,22.46-36.552,40.332-36.552h24.258c17.873,0,29.936,10.932,40.334,36.551l31.763,78.284
	c1.419,3.498,4.787,5.619,8.343,5.619c1.127,0,2.272-0.213,3.381-0.663C287.105,260.803,289.323,255.554,287.455,250.948z
	 M186.552,34.847c20.692,0,37.526,16.835,37.526,37.528s-16.834,37.529-37.526,37.529c-20.693,0-37.529-16.835-37.529-37.529
	S165.859,34.847,186.552,34.847z M186.552,52.847c-10.769,0-19.529,8.76-19.529,19.528s8.761,19.529,19.529,19.529
	c10.767,0,19.526-8.761,19.526-19.529S197.319,52.847,186.552,52.847z"/>
<g>
</g>
<g>
</g>
<g>
</g>
<g>
</g>
<g>
</g>
<g>
</g>
<g>
</g>
<g>
</g>
<g>
</g>
<g>
</g>
<g>
</g>
<g>
</g>
<g>
</g>
<g>
</g>
<g>
</g>
</svg>
